<svg width="196" height="251" viewBox="0 0 196 251" fill="none" xmlns="http://www.w3.org/2000/svg">
<path d="M3.1015 243.285C3.1015 242.835 3.2665 242.37 3.5965 241.89C3.9565 241.41 4.3615 241.17 4.8115 241.17C4.9615 241.17 5.0665 241.2 5.1265 241.26C6.1765 242.37 7.7515 243.39 9.8515 244.32C11.9815 245.22 13.9765 245.67 15.8365 245.67C21.2065 245.67 23.8915 243.885 23.8915 240.315C23.8915 239.115 23.5165 238.14 22.7665 237.39C22.0465 236.61 21.0865 236.025 19.8865 235.635C18.7165 235.245 17.4115 234.915 15.9715 234.645C14.5615 234.375 13.1365 234.06 11.6965 233.7C10.2565 233.31 8.9365 232.83 7.7365 232.26C6.5665 231.69 5.6065 230.82 4.8565 229.65C4.1365 228.48 3.7765 227.055 3.7765 225.375C3.7765 222.855 4.8865 220.92 7.1065 219.57C9.3265 218.19 11.9815 217.5 15.0715 217.5C17.4715 217.5 19.7215 217.905 21.8215 218.715C23.9515 219.495 25.5115 220.605 26.5015 222.045C26.5315 222.105 26.5465 222.18 26.5465 222.27C26.5465 222.63 26.2915 223.005 25.7815 223.395C25.3015 223.755 24.8665 223.935 24.4765 223.935C24.4165 223.935 24.2365 223.86 23.9365 223.71C21.5665 221.76 18.6265 220.785 15.1165 220.785C12.9865 220.785 11.1115 221.19 9.4915 222C7.8715 222.78 7.0615 223.98 7.0615 225.6C7.0615 226.71 7.4215 227.625 8.1415 228.345C8.8915 229.065 9.8515 229.605 11.0215 229.965C12.2215 230.295 13.5415 230.595 14.9815 230.865C16.4215 231.105 17.8615 231.42 19.3015 231.81C20.7415 232.2 22.0465 232.71 23.2165 233.34C24.4165 233.94 25.3765 234.855 26.0965 236.085C26.8465 237.315 27.2215 238.815 27.2215 240.585C27.2215 246.165 23.5315 248.955 16.1515 248.955C13.7515 248.955 11.3965 248.535 9.0865 247.695C6.7765 246.825 4.8865 245.64 3.4165 244.14C3.2065 243.93 3.1015 243.645 3.1015 243.285ZM32.5765 247.74V218.715C32.5765 217.905 33.1465 217.5 34.2865 217.5C34.7365 217.5 35.1115 217.605 35.4115 217.815C35.7415 218.025 35.9065 218.325 35.9065 218.715V245.715H50.6665C51.0565 245.715 51.3565 245.88 51.5665 246.21C51.8065 246.54 51.9265 246.93 51.9265 247.38C51.9265 248.46 51.5065 249 50.6665 249H35.1865C33.4465 249 32.5765 248.58 32.5765 247.74ZM53.1605 233.34C53.1605 228.75 54.4355 224.925 56.9855 221.865C59.5655 218.805 62.6255 217.275 66.1655 217.275C69.7055 217.275 72.6905 218.85 75.1205 222C77.5805 225.12 78.8105 228.855 78.8105 233.205C78.8105 238.005 77.6105 241.875 75.2105 244.815C72.8405 247.725 69.8255 249.195 66.1655 249.225C62.6255 249.225 59.5655 247.74 56.9855 244.77C54.4355 241.8 53.1605 237.99 53.1605 233.34ZM56.4905 233.385C56.4905 236.805 57.4355 239.745 59.3255 242.205C61.2455 244.665 63.5255 245.895 66.1655 245.895C68.7755 245.895 70.9805 244.665 72.7805 242.205C74.5805 239.715 75.4805 236.745 75.4805 233.295C75.4805 229.995 74.5655 227.055 72.7355 224.475C70.9355 221.895 68.7455 220.605 66.1655 220.605C63.5255 220.605 61.2455 221.91 59.3255 224.52C57.4355 227.13 56.4905 230.085 56.4905 233.385ZM80.3665 219.12C80.3665 218.67 80.4715 218.295 80.6815 217.995C80.8915 217.665 81.1915 217.5 81.5815 217.5H103.812C104.202 217.5 104.502 217.665 104.712 217.995C104.952 218.325 105.072 218.715 105.072 219.165C105.072 220.275 104.652 220.83 103.812 220.83H94.0915V247.74C94.0915 248.13 93.9265 248.445 93.5965 248.685C93.2665 248.895 92.8765 249 92.4265 249C91.3165 249 90.7615 248.58 90.7615 247.74V220.83H81.5815C80.7715 220.83 80.3665 220.26 80.3665 219.12ZM108.822 247.74V218.715C108.822 217.905 109.392 217.5 110.532 217.5C110.982 217.5 111.357 217.605 111.657 217.815C111.987 218.025 112.152 218.325 112.152 218.715V229.695H131.232V218.715C131.232 217.905 131.802 217.5 132.942 217.5C133.392 217.5 133.767 217.605 134.067 217.815C134.397 218.025 134.562 218.325 134.562 218.715V247.74C134.562 248.13 134.397 248.445 134.067 248.685C133.737 248.895 133.347 249 132.897 249C131.787 249 131.232 248.58 131.232 247.74V233.025H112.152V247.74C112.152 248.13 111.987 248.445 111.657 248.685C111.327 248.895 110.937 249 110.487 249C109.377 249 108.822 248.58 108.822 247.74ZM139.861 233.025C139.861 228.435 141.511 224.625 144.811 221.595C148.141 218.535 152.056 217.005 156.556 217.005C159.256 217.005 161.761 217.935 164.071 219.795C164.311 220.005 164.431 220.275 164.431 220.605C164.431 221.085 164.236 221.535 163.846 221.955C163.456 222.345 163.051 222.54 162.631 222.54C162.331 222.54 162.076 222.435 161.866 222.225C160.426 220.965 158.626 220.335 156.466 220.335C152.536 220.335 149.341 221.61 146.881 224.16C144.451 226.68 143.236 229.62 143.236 232.98C143.236 236.43 144.436 239.475 146.836 242.115C149.236 244.755 152.461 246.075 156.511 246.075C159.151 246.075 161.296 245.13 162.946 243.24C163.276 242.91 163.561 242.745 163.801 242.745C164.251 242.745 164.686 242.97 165.106 243.42C165.526 243.87 165.736 244.305 165.736 244.725C165.736 244.995 165.631 245.235 165.421 245.445C163.111 248.085 160.216 249.405 156.736 249.405C153.286 249.405 150.256 248.625 147.646 247.065C145.036 245.475 143.086 243.465 141.796 241.035C140.506 238.575 139.861 235.905 139.861 233.025ZM168.074 233.025C168.074 228.435 169.724 224.625 173.024 221.595C176.354 218.535 180.269 217.005 184.769 217.005C187.469 217.005 189.974 217.935 192.284 219.795C192.524 220.005 192.644 220.275 192.644 220.605C192.644 221.085 192.449 221.535 192.059 221.955C191.669 222.345 191.264 222.54 190.844 222.54C190.544 222.54 190.289 222.435 190.079 222.225C188.639 220.965 186.839 220.335 184.679 220.335C180.749 220.335 177.554 221.61 175.094 224.16C172.664 226.68 171.449 229.62 171.449 232.98C171.449 236.43 172.649 239.475 175.049 242.115C177.449 244.755 180.674 246.075 184.724 246.075C187.364 246.075 189.509 245.13 191.159 243.24C191.489 242.91 191.774 242.745 192.014 242.745C192.464 242.745 192.899 242.97 193.319 243.42C193.739 243.87 193.949 244.305 193.949 244.725C193.949 244.995 193.844 245.235 193.634 245.445C191.324 248.085 188.429 249.405 184.949 249.405C181.499 249.405 178.469 248.625 175.859 247.065C173.249 245.475 171.299 243.465 170.009 241.035C168.719 238.575 168.074 235.905 168.074 233.025Z" fill="black"/>
<circle cx="98" cy="98" r="95.5" fill="#C2A584" stroke="black" stroke-width="5"/>
<path d="M98.0064 174C139.98 174 174.006 139.974 174.006 98C174.006 56.0264 139.98 22 98.0064 22C56.0328 22 22.0064 56.0264 22.0064 98C22.0064 139.974 56.0328 174 98.0064 174Z" fill="white"/>
<path d="M98.0064 22C56.4102 22 22.6189 55.4172 22.0146 96.8697C22.1849 92.2654 24.1674 74.3887 44.0064 58C67.0064 39 98.0064 56.5 98.0064 56.5C98.0064 56.5 129.006 38.5 151.506 58C174.006 77.5 174.006 98 174.006 98C174.006 56.0264 139.98 22 98.0064 22Z" fill="#A4856D"/>
<path fill-rule="evenodd" clip-rule="evenodd" d="M174.006 98C174.006 56.0264 139.98 22 98.0064 22C56.4102 22 22.6189 55.4172 22.0146 96.8697C22.1849 92.2654 24.1674 74.3887 44.0064 58C67.0064 39 98.0064 56.5 98.0064 56.5C98.0064 56.5 129.006 38.5 151.506 58C174.006 77.5 174.006 98 174.006 98Z" fill="#A4856D"/>
<path d="M116 82.5C116.001 72.835 123.835 65 133.5 65C134.349 65 136 65.1772 136 65.1772C140.148 65.7035 142.382 66.9055 146 69C149.722 71.1543 151.334 73.0902 154.5 76C159.384 80.4884 162.191 83.0693 166 88.5C170.262 94.577 173.326 98.1709 174.5 105.5C175.273 110.324 175.079 113.235 174 118C172.765 123.453 168 131 168 131C168 131 167.718 127.562 167 125.5C166.108 122.938 165.204 121.61 163.5 119.5C160.233 115.455 157 114.604 152.5 112C147.813 109.288 144.913 108.276 140 106C136.114 104.2 133.761 103.549 130 101.5C127.383 100.074 125.75 99.4545 123.5 97.5C121.725 95.9584 120.798 94.9617 119.5 93.0017C117.113 89.3973 116 86.8229 116 82.5Z" fill="black"/>
<path d="M80.9689 82.5C80.9682 72.835 73.1339 65 63.4689 65C62.6201 65 60.9689 65.1772 60.9689 65.1772C56.8213 65.7035 54.5872 66.9055 50.9689 69C47.2472 71.1543 45.6351 73.0902 42.4689 76C37.5849 80.4884 34.7776 83.0693 30.9689 88.5C26.7069 94.577 23.643 98.1709 22.4689 105.5C21.6961 110.324 21.8894 113.235 22.9689 118C24.2044 123.453 28.9689 131 28.9689 131C28.9689 131 29.2513 127.562 29.9689 125.5C30.8606 122.938 31.7645 121.61 33.4689 119.5C36.7355 115.455 39.9685 114.604 44.4689 112C49.1558 109.288 52.0555 108.276 56.9689 106C60.8547 104.2 63.2083 103.549 66.9689 101.5C69.5862 100.074 71.2187 99.4545 73.4689 97.5C75.2436 95.9584 76.171 94.9617 77.4689 93.0017C79.8556 89.3973 80.9692 86.8229 80.9689 82.5Z" fill="black"/>
<path d="M98 117C100.841 117 110.829 109.929 107.226 105.398C103.623 100.867 92.3769 100.867 88.7739 105.398C85.1709 109.929 95.1591 117 98 117Z" fill="#221F1F"/>
<path d="M82 131C82 133.5 87.8768 140 98.5 140C109.123 140 115.5 134.5 115.5 131" stroke="black" stroke-width="3"/>
</svg>
